<?xml version="1.0" standalone="no"?>
<!DOCTYPE svg PUBLIC "-//W3C//DTD SVG 20010904//EN"
 "http://www.w3.org/TR/2001/REC-SVG-20010904/DTD/svg10.dtd">
<svg version="1.0" xmlns="http://www.w3.org/2000/svg"
 width="260.000000pt" height="260.000000pt" viewBox="0 0 260.000000 260.000000"
 preserveAspectRatio="xMidYMid meet">
<metadata>
Created by potrace 1.11, written by Peter Selinger 2001-2013
</metadata>
<g transform="translate(0.000000,260.000000) scale(0.100000,-0.100000)"
fill="#000000" stroke="none">
<path d="M650 1940 c-228 -30 -409 -156 -505 -353 -61 -125 -85 -240 -85 -407
0 -143 10 -219 45 -328 51 -160 159 -295 294 -366 64 -34 93 -54 57 -40 -8 3
-17 1 -21 -5 -3 -6 -13 -11 -21 -11 -9 0 -12 5 -8 11 4 8 -1 9 -17 4 -28 -9
-117 -10 -126 -1 -3 3 -12 1 -20 -5 -9 -8 -17 -8 -26 -1 -8 7 -18 7 -27 2 -22
-14 -42 -12 -34 3 5 9 4 9 -6 0 -9 -9 -19 -9 -33 -2 -11 6 -17 7 -14 2 4 -6
-16 -9 -48 -7 l-55 3 0 -219 0 -220 1300 0 1300 0 0 235 0 234 -135 -4 c-74
-2 -139 -7 -146 -11 -8 -4 -9 -3 -5 4 5 8 -2 12 -18 12 -14 0 -26 -5 -26 -12
0 -9 -3 -9 -12 0 -15 15 -32 16 -23 2 7 -11 -23 -9 -42 3 -8 5 -13 3 -13 -5 0
-10 -2 -10 -8 -1 -8 12 -36 12 -48 0 -11 -11 -44 -8 -44 3 0 6 -5 10 -11 10
-5 0 -7 -6 -3 -12 5 -10 3 -10 -7 0 -12 11 -15 121 -17 657 l-3 645 251 0 250
0 0 85 0 85 -595 0 -595 0 0 -85 0 -85 252 0 251 0 -6 -322 c-4 -178 -7 -472
-7 -653 l0 -331 -202 1 c-112 1 -211 -2 -220 -7 -9 -4 -19 -4 -22 0 -5 8 -155
6 -164 -3 -3 -2 -13 0 -23 5 -11 7 -20 7 -24 0 -3 -6 -15 -6 -30 0 -16 6 -25
5 -27 -2 -3 -7 -17 -8 -43 -4 l-39 8 102 40 102 41 0 328 0 329 -270 0 -270 0
0 -85 0 -85 170 0 170 0 -2 -197 -3 -197 -44 -13 c-25 -7 -92 -18 -151 -24
-195 -20 -327 19 -432 129 -63 66 -96 124 -130 232 -20 66 -23 94 -23 240 1
152 3 171 28 245 45 136 131 245 232 297 176 91 467 46 654 -102 28 -22 53
-40 56 -40 3 0 5 53 5 118 l0 117 -89 37 c-177 75 -337 100 -501 78z"/>
</g>
</svg>
